<svg xmlns="http://www.w3.org/2000/svg" viewBox="220.136719 190.859375 148.285156 215.69140599999997"><path d="M 297.113281 327.210938 L 297.113281 364.488281 L 351.304688 310.296875 L 332.664062 291.660156 Z M 297.113281 372.503906 L 297.113281 393.714844 C 297.113281 395.28125 295.84375 396.550781 294.277344 396.550781 C 292.714844 396.550781 291.445312 395.28125 291.445312 393.714844 L 291.445312 372.503906 L 231.242188 312.300781 C 230.136719 311.195312 230.136719 309.402344 231.242188 308.292969 L 292.273438 247.261719 C 293.382812 246.15625 295.175781 246.15625 296.28125 247.261719 L 327.5 278.476562 L 332.664062 283.644531 L 342.449219 293.429688 L 357.316406 308.292969 C 358.421875 309.402344 358.421875 311.195312 357.316406 312.300781 Z M 245.40625 281.175781 L 231.242188 267.007812 C 230.136719 265.902344 230.136719 264.105469 231.242188 263 L 292.273438 201.96875 C 293.382812 200.859375 295.175781 200.859375 296.28125 201.96875 L 357.316406 263 C 358.421875 264.105469 358.421875 265.902344 357.316406 267.007812 L 343.152344 281.175781 L 339.140625 277.164062 L 351.304688 265.003906 L 294.277344 207.980469 L 237.253906 265.003906 L 249.414062 277.164062 Z M 291.445312 364.488281 L 291.445312 327.210938 L 255.890625 291.660156 L 237.253906 310.296875 Z M 294.277344 253.273438 L 259.902344 287.652344 L 294.277344 322.03125 L 328.65625 287.652344 Z M 294.277344 253.273438 " fill="#8B5A2B" fill-rule="nonzero"></path></svg>